<svg width="662" height="244" viewBox="0 0 662 244" fill="none" xmlns="http://www.w3.org/2000/svg">
<path d="M89.5278 48.1001V51.9893C89.5278 59.3281 88.4951 65.9199 86.4297 71.7646C84.4082 77.5654 81.5298 82.5312 77.7944 86.6621C74.0591 90.749 69.6426 93.8911 64.5449 96.0884C59.4473 98.2417 53.8223 99.3184 47.6699 99.3184C41.4736 99.3184 35.8047 98.2417 30.6631 96.0884C25.5654 93.8911 21.127 90.749 17.3477 86.6621C13.6123 82.5312 10.7119 77.5654 8.64648 71.7646C6.625 65.9199 5.61426 59.3281 5.61426 51.9893V48.1001C5.61426 40.7612 6.625 34.1694 8.64648 28.3247C10.7119 22.48 13.5903 17.5142 17.2817 13.4272C21.0171 9.29639 25.4336 6.1543 30.5312 4.00098C35.6729 1.80371 41.3418 0.705078 47.5381 0.705078C53.6904 0.705078 59.3154 1.80371 64.4131 4.00098C69.5547 6.1543 73.9932 9.29639 77.7285 13.4272C81.4639 17.5142 84.3643 22.48 86.4297 28.3247C88.4951 34.1694 89.5278 40.7612 89.5278 48.1001ZM66.061 51.9893V47.9683C66.061 43.2222 65.6436 39.0474 64.8086 35.4438C64.0176 31.7964 62.8311 28.7422 61.249 26.2812C59.667 23.8203 57.7114 21.9746 55.3823 20.7441C53.0972 19.4697 50.4824 18.8325 47.5381 18.8325C44.4619 18.8325 41.7812 19.4697 39.4961 20.7441C37.2109 21.9746 35.2993 23.8203 33.7612 26.2812C32.2231 28.7422 31.0586 31.7964 30.2676 35.4438C29.5205 39.0474 29.147 43.2222 29.147 47.9683V51.9893C29.147 56.6914 29.5205 60.8662 30.2676 64.5137C31.0586 68.1172 32.2231 71.1714 33.7612 73.6763C35.3433 76.1812 37.2769 78.0708 39.562 79.3452C41.8911 80.6196 44.5938 81.2568 47.6699 81.2568C50.6143 81.2568 53.229 80.6196 55.5142 79.3452C57.7993 78.0708 59.7109 76.1812 61.249 73.6763C62.8311 71.1714 64.0176 68.1172 64.8086 64.5137C65.6436 60.8662 66.061 56.6914 66.061 51.9893ZM142.328 2.02344V98H119.191V2.02344H142.328ZM171.2 2.02344V19.8872H90.978V2.02344H171.2ZM205.609 2.02344V98H182.538V2.02344H205.609ZM233.361 2.02344H252.213L273.637 68.7983L295.06 2.02344H313.913L281.283 98H265.99L233.361 2.02344ZM221.891 2.02344H241.403L245.028 75.5879V98H221.891V2.02344ZM305.871 2.02344H325.448V98H302.245V75.5879L305.871 2.02344ZM364.867 2.02344V98H341.796V2.02344H364.867ZM453 80.2021V98H383.522V80.2021H453ZM452.538 13.8887L394.992 98H378.249V85.8052L436.454 2.02344H452.538V13.8887ZM445.089 2.02344V19.8872H377.919V2.02344H445.089ZM505.141 22.1943L481.74 98H456.889L492.155 2.02344H507.909L505.141 22.1943ZM524.521 98L501.054 22.1943L498.021 2.02344H513.974L549.438 98H524.521ZM523.598 62.2065V80.0703H474.357V62.2065H523.598Z" fill="url(#paint0_linear_34_102)"/>
<path d="M48.9883 166.194L25.5874 242H0.736328L36.0024 146.023H51.7568L48.9883 166.194ZM68.3682 242L44.9014 166.194L41.8691 146.023H57.8213L93.2852 242H68.3682ZM67.4453 206.207V224.07H18.2046V206.207H67.4453ZM177.396 190.716V230.135C175.771 231.937 173.266 233.87 169.882 235.936C166.542 237.957 162.323 239.693 157.226 241.143C152.128 242.593 146.129 243.318 139.23 243.318C132.858 243.318 127.079 242.308 121.894 240.286C116.708 238.221 112.248 235.21 108.512 231.255C104.821 227.256 101.964 222.378 99.9429 216.622C97.9653 210.821 96.9766 204.185 96.9766 196.714V191.375C96.9766 183.904 97.9873 177.269 100.009 171.468C102.03 165.667 104.865 160.789 108.512 156.834C112.204 152.835 116.532 149.803 121.498 147.737C126.508 145.672 132.001 144.639 137.978 144.639C146.811 144.639 153.996 146.045 159.533 148.858C165.07 151.626 169.267 155.472 172.123 160.394C174.979 165.271 176.715 170.918 177.331 177.334H155.116C154.677 174.17 153.842 171.49 152.611 169.292C151.425 167.051 149.711 165.359 147.47 164.217C145.229 163.03 142.328 162.437 138.769 162.437C136 162.437 133.473 163.03 131.188 164.217C128.947 165.403 127.035 167.205 125.453 169.622C123.871 171.995 122.641 174.983 121.762 178.587C120.927 182.19 120.509 186.409 120.509 191.243V196.714C120.509 201.504 120.905 205.701 121.696 209.305C122.531 212.908 123.761 215.918 125.387 218.335C127.057 220.708 129.167 222.51 131.715 223.741C134.308 224.927 137.362 225.521 140.878 225.521C143.339 225.521 145.448 225.323 147.206 224.927C148.964 224.488 150.414 223.96 151.557 223.345C152.743 222.686 153.644 222.071 154.259 221.5V206.602H138.175V190.716H177.396ZM190.91 146.023H228.681C236.063 146.023 242.479 147.122 247.929 149.319C253.378 151.517 257.575 154.769 260.519 159.075C263.507 163.382 265.001 168.699 265.001 175.027C265.001 180.521 264.145 185.113 262.431 188.804C260.717 192.496 258.322 195.55 255.246 197.967C252.213 200.34 248.676 202.295 244.633 203.833L237.052 208.118H205.346L205.214 190.254H228.681C231.625 190.254 234.064 189.727 235.998 188.672C237.931 187.618 239.381 186.124 240.348 184.19C241.359 182.212 241.864 179.861 241.864 177.137C241.864 174.368 241.359 171.995 240.348 170.018C239.337 168.04 237.843 166.524 235.866 165.469C233.932 164.415 231.537 163.887 228.681 163.887H214.047V242H190.91V146.023ZM243.446 242L222.221 199.549L246.742 199.417L268.231 241.011V242H243.446ZM303.563 146.023V242H280.492V146.023H303.563ZM374.425 209.502H397.497C397.189 216.182 395.387 222.071 392.091 227.168C388.795 232.266 384.225 236.243 378.38 239.1C372.58 241.912 365.724 243.318 357.814 243.318C351.398 243.318 345.663 242.242 340.609 240.088C335.6 237.935 331.337 234.837 327.821 230.794C324.35 226.751 321.691 221.851 319.845 216.094C318.043 210.337 317.143 203.855 317.143 196.648V191.441C317.143 184.234 318.087 177.752 319.977 171.995C321.911 166.194 324.635 161.272 328.151 157.229C331.71 153.143 335.973 150.022 340.939 147.869C345.905 145.716 351.42 144.639 357.484 144.639C365.834 144.639 372.887 146.133 378.644 149.122C384.401 152.11 388.861 156.219 392.025 161.448C395.189 166.634 397.057 172.544 397.628 179.18H374.557C374.469 175.577 373.854 172.566 372.711 170.149C371.569 167.688 369.767 165.843 367.306 164.612C364.845 163.382 361.571 162.767 357.484 162.767C354.628 162.767 352.145 163.294 350.036 164.349C347.926 165.403 346.168 167.073 344.762 169.358C343.356 171.644 342.301 174.61 341.598 178.257C340.939 181.861 340.609 186.211 340.609 191.309V196.648C340.609 201.746 340.917 206.097 341.532 209.7C342.147 213.304 343.136 216.248 344.499 218.533C345.861 220.818 347.619 222.51 349.772 223.609C351.969 224.664 354.65 225.191 357.814 225.191C361.33 225.191 364.296 224.642 366.713 223.543C369.13 222.4 370.998 220.687 372.316 218.401C373.634 216.072 374.337 213.106 374.425 209.502ZM489.65 192.1V195.989C489.65 203.328 488.617 209.92 486.552 215.765C484.53 221.565 481.652 226.531 477.917 230.662C474.181 234.749 469.765 237.891 464.667 240.088C459.569 242.242 453.944 243.318 447.792 243.318C441.596 243.318 435.927 242.242 430.785 240.088C425.688 237.891 421.249 234.749 417.47 230.662C413.734 226.531 410.834 221.565 408.769 215.765C406.747 209.92 405.736 203.328 405.736 195.989V192.1C405.736 184.761 406.747 178.169 408.769 172.325C410.834 166.48 413.712 161.514 417.404 157.427C421.139 153.296 425.556 150.154 430.653 148.001C435.795 145.804 441.464 144.705 447.66 144.705C453.812 144.705 459.438 145.804 464.535 148.001C469.677 150.154 474.115 153.296 477.851 157.427C481.586 161.514 484.486 166.48 486.552 172.325C488.617 178.169 489.65 184.761 489.65 192.1ZM466.183 195.989V191.968C466.183 187.222 465.766 183.047 464.931 179.444C464.14 175.796 462.953 172.742 461.371 170.281C459.789 167.82 457.833 165.975 455.504 164.744C453.219 163.47 450.604 162.833 447.66 162.833C444.584 162.833 441.903 163.47 439.618 164.744C437.333 165.975 435.421 167.82 433.883 170.281C432.345 172.742 431.181 175.796 430.39 179.444C429.643 183.047 429.269 187.222 429.269 191.968V195.989C429.269 200.691 429.643 204.866 430.39 208.514C431.181 212.117 432.345 215.171 433.883 217.676C435.465 220.181 437.399 222.071 439.684 223.345C442.013 224.62 444.716 225.257 447.792 225.257C450.736 225.257 453.351 224.62 455.636 223.345C457.921 222.071 459.833 220.181 461.371 217.676C462.953 215.171 464.14 212.117 464.931 208.514C465.766 204.866 466.183 200.691 466.183 195.989ZM565.06 224.202V242H516.544V224.202H565.06ZM524.784 146.023V242H501.647V146.023H524.784ZM616.806 166.194L593.405 242H568.554L603.82 146.023H619.574L616.806 166.194ZM636.186 242L612.719 166.194L609.687 146.023H625.639L661.103 242H636.186ZM635.263 206.207V224.07H586.022V206.207H635.263Z" fill="#4F4F4F"/>
<defs>
<linearGradient id="paint0_linear_34_102" x1="1" y1="-20" x2="690.848" y2="111.937" gradientUnits="userSpaceOnUse">
<stop stop-color="#48B760"/>
<stop offset="1" stop-color="#6BB748"/>
</linearGradient>
</defs>
</svg>
