<svg width="613" height="189" viewBox="0 0 613 189" fill="none" xmlns="http://www.w3.org/2000/svg">
<path d="M120.941 60.1001V63.9893C120.941 71.3281 119.908 77.9199 117.843 83.7646C115.821 89.5654 112.943 94.5312 109.208 98.6621C105.472 102.749 101.056 105.891 95.958 108.088C90.8604 110.242 85.2354 111.318 79.083 111.318C72.8867 111.318 67.2178 110.242 62.0762 108.088C56.9785 105.891 52.54 102.749 48.7607 98.6621C45.0254 94.5312 42.125 89.5654 40.0596 83.7646C38.0381 77.9199 37.0273 71.3281 37.0273 63.9893V60.1001C37.0273 52.7612 38.0381 46.1694 40.0596 40.3247C42.125 34.48 45.0034 29.5142 48.6948 25.4272C52.4302 21.2964 56.8467 18.1543 61.9443 16.001C67.0859 13.8037 72.7549 12.7051 78.9512 12.7051C85.1035 12.7051 90.7285 13.8037 95.8262 16.001C100.968 18.1543 105.406 21.2964 109.142 25.4272C112.877 29.5142 115.777 34.48 117.843 40.3247C119.908 46.1694 120.941 52.7612 120.941 60.1001ZM97.4741 63.9893V59.9683C97.4741 55.2222 97.0566 51.0474 96.2217 47.4438C95.4307 43.7964 94.2441 40.7422 92.6621 38.2812C91.0801 35.8203 89.1245 33.9746 86.7954 32.7441C84.5103 31.4697 81.8955 30.8325 78.9512 30.8325C75.875 30.8325 73.1943 31.4697 70.9092 32.7441C68.624 33.9746 66.7124 35.8203 65.1743 38.2812C63.6362 40.7422 62.4717 43.7964 61.6807 47.4438C60.9336 51.0474 60.5601 55.2222 60.5601 59.9683V63.9893C60.5601 68.6914 60.9336 72.8662 61.6807 76.5137C62.4717 80.1172 63.6362 83.1714 65.1743 85.6763C66.7563 88.1812 68.6899 90.0708 70.9751 91.3452C73.3042 92.6196 76.0068 93.2568 79.083 93.2568C82.0273 93.2568 84.6421 92.6196 86.9272 91.3452C89.2124 90.0708 91.124 88.1812 92.6621 85.6763C94.2441 83.1714 95.4307 80.1172 96.2217 76.5137C97.0566 72.8662 97.4741 68.6914 97.4741 63.9893ZM173.741 14.0234V110H150.604V14.0234H173.741ZM202.613 14.0234V31.8872H122.391V14.0234H202.613ZM237.022 14.0234V110H213.951V14.0234H237.022ZM264.774 14.0234H283.626L305.05 80.7983L326.473 14.0234H345.326L312.696 110H297.403L264.774 14.0234ZM253.304 14.0234H272.816L276.441 87.5879V110H253.304V14.0234ZM337.284 14.0234H356.861V110H333.658V87.5879L337.284 14.0234ZM396.28 14.0234V110H373.209V14.0234H396.28ZM484.413 92.2021V110H414.935V92.2021H484.413ZM483.951 25.8887L426.405 110H409.662V97.8052L467.867 14.0234H483.951V25.8887ZM476.502 14.0234V31.8872H409.332V14.0234H476.502ZM536.554 34.1943L513.153 110H488.302L523.568 14.0234H539.322L536.554 34.1943ZM555.934 110L532.467 34.1943L529.435 14.0234H545.387L580.851 110H555.934ZM555.011 74.2065V92.0703H505.77V74.2065H555.011Z" fill="url(#paint0_linear_328_210)"/>
<path d="M84.1719 148.422H75.6875V142.07H84.1719C85.3281 142.07 86.2656 141.875 86.9844 141.484C87.7031 141.094 88.2266 140.555 88.5547 139.867C88.8984 139.164 89.0703 138.375 89.0703 137.5C89.0703 136.562 88.8984 135.695 88.5547 134.898C88.2266 134.102 87.7031 133.461 86.9844 132.977C86.2656 132.477 85.3281 132.227 84.1719 132.227H78.7812V160H70.5547V125.875H84.1719C86.9062 125.875 89.2578 126.375 91.2266 127.375C93.2109 128.375 94.7344 129.75 95.7969 131.5C96.8594 133.234 97.3906 135.219 97.3906 137.453C97.3906 139.656 96.8594 141.578 95.7969 143.219C94.7344 144.859 93.2109 146.141 91.2266 147.062C89.2578 147.969 86.9062 148.422 84.1719 148.422ZM125.305 153.672V160H107.117V153.672H125.305ZM110.047 125.875V160H101.82V125.875H110.047ZM122.961 139.422V145.539H107.117V139.422H122.961ZM125.375 125.875V132.227H107.117V125.875H125.375ZM146.258 150.93C146.258 150.398 146.18 149.922 146.023 149.5C145.867 149.062 145.578 148.656 145.156 148.281C144.734 147.906 144.125 147.531 143.328 147.156C142.547 146.766 141.516 146.359 140.234 145.938C138.734 145.438 137.289 144.875 135.898 144.25C134.508 143.609 133.266 142.867 132.172 142.023C131.078 141.164 130.211 140.164 129.57 139.023C128.93 137.867 128.609 136.523 128.609 134.992C128.609 133.523 128.938 132.203 129.594 131.031C130.25 129.844 131.164 128.836 132.336 128.008C133.523 127.164 134.914 126.523 136.508 126.086C138.102 125.633 139.844 125.406 141.734 125.406C144.234 125.406 146.438 125.844 148.344 126.719C150.266 127.578 151.766 128.805 152.844 130.398C153.938 131.977 154.484 133.844 154.484 136H146.305C146.305 135.141 146.125 134.383 145.766 133.727C145.422 133.07 144.898 132.555 144.195 132.18C143.492 131.805 142.609 131.617 141.547 131.617C140.516 131.617 139.648 131.773 138.945 132.086C138.242 132.398 137.711 132.82 137.352 133.352C136.992 133.867 136.812 134.438 136.812 135.062C136.812 135.578 136.953 136.047 137.234 136.469C137.531 136.875 137.945 137.258 138.477 137.617C139.023 137.977 139.68 138.32 140.445 138.648C141.227 138.977 142.102 139.297 143.07 139.609C144.883 140.188 146.492 140.836 147.898 141.555C149.32 142.258 150.516 143.062 151.484 143.969C152.469 144.859 153.211 145.875 153.711 147.016C154.227 148.156 154.484 149.445 154.484 150.883C154.484 152.414 154.188 153.773 153.594 154.961C153 156.148 152.148 157.156 151.039 157.984C149.93 158.797 148.602 159.414 147.055 159.836C145.508 160.258 143.781 160.469 141.875 160.469C140.125 160.469 138.398 160.25 136.695 159.812C135.008 159.359 133.477 158.672 132.102 157.75C130.727 156.812 129.625 155.617 128.797 154.164C127.984 152.695 127.578 150.953 127.578 148.938H135.828C135.828 149.938 135.961 150.781 136.227 151.469C136.492 152.156 136.883 152.711 137.398 153.133C137.914 153.539 138.547 153.836 139.297 154.023C140.047 154.195 140.906 154.281 141.875 154.281C142.922 154.281 143.766 154.133 144.406 153.836C145.047 153.523 145.516 153.117 145.812 152.617C146.109 152.102 146.258 151.539 146.258 150.93ZM177.758 154.375L187.273 161.922L182.164 166.234L172.812 158.688L177.758 154.375ZM187.672 142.258V143.641C187.672 146.25 187.305 148.594 186.57 150.672C185.852 152.734 184.82 154.5 183.477 155.969C182.148 157.422 180.578 158.539 178.766 159.32C176.953 160.086 174.953 160.469 172.766 160.469C170.562 160.469 168.547 160.086 166.719 159.32C164.906 158.539 163.328 157.422 161.984 155.969C160.656 154.5 159.625 152.734 158.891 150.672C158.172 148.594 157.812 146.25 157.812 143.641V142.258C157.812 139.648 158.172 137.305 158.891 135.227C159.625 133.148 160.648 131.383 161.961 129.93C163.289 128.461 164.859 127.344 166.672 126.578C168.5 125.797 170.516 125.406 172.719 125.406C174.906 125.406 176.906 125.797 178.719 126.578C180.547 127.344 182.125 128.461 183.453 129.93C184.797 131.383 185.836 133.148 186.57 135.227C187.305 137.305 187.672 139.648 187.672 142.258ZM179.305 143.641V142.211C179.305 140.523 179.156 139.039 178.859 137.758C178.578 136.461 178.156 135.375 177.594 134.5C177.031 133.625 176.336 132.969 175.508 132.531C174.695 132.078 173.766 131.852 172.719 131.852C171.625 131.852 170.672 132.078 169.859 132.531C169.047 132.969 168.367 133.625 167.82 134.5C167.273 135.375 166.859 136.461 166.578 137.758C166.312 139.039 166.18 140.523 166.18 142.211V143.641C166.18 145.312 166.312 146.797 166.578 148.094C166.859 149.375 167.273 150.461 167.82 151.352C168.383 152.242 169.07 152.914 169.883 153.367C170.711 153.82 171.672 154.047 172.766 154.047C173.812 154.047 174.742 153.82 175.555 153.367C176.367 152.914 177.047 152.242 177.594 151.352C178.156 150.461 178.578 149.375 178.859 148.094C179.156 146.797 179.305 145.312 179.305 143.641ZM210.383 125.875H218.609V148.164C218.609 150.82 218.055 153.07 216.945 154.914C215.836 156.742 214.281 158.125 212.281 159.062C210.281 160 207.93 160.469 205.227 160.469C202.555 160.469 200.203 160 198.172 159.062C196.156 158.125 194.578 156.742 193.438 154.914C192.312 153.07 191.75 150.82 191.75 148.164V125.875H200V148.164C200 149.57 200.203 150.719 200.609 151.609C201.016 152.484 201.609 153.125 202.391 153.531C203.172 153.938 204.117 154.141 205.227 154.141C206.352 154.141 207.297 153.938 208.062 153.531C208.828 153.125 209.406 152.484 209.797 151.609C210.188 150.719 210.383 149.57 210.383 148.164V125.875ZM232.531 125.875V160H224.328V125.875H232.531ZM255.898 150.93C255.898 150.398 255.82 149.922 255.664 149.5C255.508 149.062 255.219 148.656 254.797 148.281C254.375 147.906 253.766 147.531 252.969 147.156C252.188 146.766 251.156 146.359 249.875 145.938C248.375 145.438 246.93 144.875 245.539 144.25C244.148 143.609 242.906 142.867 241.812 142.023C240.719 141.164 239.852 140.164 239.211 139.023C238.57 137.867 238.25 136.523 238.25 134.992C238.25 133.523 238.578 132.203 239.234 131.031C239.891 129.844 240.805 128.836 241.977 128.008C243.164 127.164 244.555 126.523 246.148 126.086C247.742 125.633 249.484 125.406 251.375 125.406C253.875 125.406 256.078 125.844 257.984 126.719C259.906 127.578 261.406 128.805 262.484 130.398C263.578 131.977 264.125 133.844 264.125 136H255.945C255.945 135.141 255.766 134.383 255.406 133.727C255.062 133.07 254.539 132.555 253.836 132.18C253.133 131.805 252.25 131.617 251.188 131.617C250.156 131.617 249.289 131.773 248.586 132.086C247.883 132.398 247.352 132.82 246.992 133.352C246.633 133.867 246.453 134.438 246.453 135.062C246.453 135.578 246.594 136.047 246.875 136.469C247.172 136.875 247.586 137.258 248.117 137.617C248.664 137.977 249.32 138.32 250.086 138.648C250.867 138.977 251.742 139.297 252.711 139.609C254.523 140.188 256.133 140.836 257.539 141.555C258.961 142.258 260.156 143.062 261.125 143.969C262.109 144.859 262.852 145.875 263.352 147.016C263.867 148.156 264.125 149.445 264.125 150.883C264.125 152.414 263.828 153.773 263.234 154.961C262.641 156.148 261.789 157.156 260.68 157.984C259.57 158.797 258.242 159.414 256.695 159.836C255.148 160.258 253.422 160.469 251.516 160.469C249.766 160.469 248.039 160.25 246.336 159.812C244.648 159.359 243.117 158.672 241.742 157.75C240.367 156.812 239.266 155.617 238.438 154.164C237.625 152.695 237.219 150.953 237.219 148.938H245.469C245.469 149.938 245.602 150.781 245.867 151.469C246.133 152.156 246.523 152.711 247.039 153.133C247.555 153.539 248.188 153.836 248.938 154.023C249.688 154.195 250.547 154.281 251.516 154.281C252.562 154.281 253.406 154.133 254.047 153.836C254.688 153.523 255.156 153.117 255.453 152.617C255.75 152.102 255.898 151.539 255.898 150.93ZM282.828 133.047L274.508 160H265.672L278.211 125.875H283.812L282.828 133.047ZM289.719 160L281.375 133.047L280.297 125.875H285.969L298.578 160H289.719ZM289.391 147.273V153.625H271.883V147.273H289.391ZM327.5 133.047L319.18 160H310.344L322.883 125.875H328.484L327.5 133.047ZM334.391 160L326.047 133.047L324.969 125.875H330.641L343.25 160H334.391ZM334.062 147.273V153.625H316.555V147.273H334.062ZM373.156 141.766V155.781C372.578 156.422 371.688 157.109 370.484 157.844C369.297 158.562 367.797 159.18 365.984 159.695C364.172 160.211 362.039 160.469 359.586 160.469C357.32 160.469 355.266 160.109 353.422 159.391C351.578 158.656 349.992 157.586 348.664 156.18C347.352 154.758 346.336 153.023 345.617 150.977C344.914 148.914 344.562 146.555 344.562 143.898V142C344.562 139.344 344.922 136.984 345.641 134.922C346.359 132.859 347.367 131.125 348.664 129.719C349.977 128.297 351.516 127.219 353.281 126.484C355.062 125.75 357.016 125.383 359.141 125.383C362.281 125.383 364.836 125.883 366.805 126.883C368.773 127.867 370.266 129.234 371.281 130.984C372.297 132.719 372.914 134.727 373.133 137.008H365.234C365.078 135.883 364.781 134.93 364.344 134.148C363.922 133.352 363.312 132.75 362.516 132.344C361.719 131.922 360.688 131.711 359.422 131.711C358.438 131.711 357.539 131.922 356.727 132.344C355.93 132.766 355.25 133.406 354.688 134.266C354.125 135.109 353.688 136.172 353.375 137.453C353.078 138.734 352.93 140.234 352.93 141.953V143.898C352.93 145.602 353.07 147.094 353.352 148.375C353.648 149.656 354.086 150.727 354.664 151.586C355.258 152.43 356.008 153.07 356.914 153.508C357.836 153.93 358.922 154.141 360.172 154.141C361.047 154.141 361.797 154.07 362.422 153.93C363.047 153.773 363.562 153.586 363.969 153.367C364.391 153.133 364.711 152.914 364.93 152.711V147.414H359.211V141.766H373.156ZM377.961 125.875H391.391C394.016 125.875 396.297 126.266 398.234 127.047C400.172 127.828 401.664 128.984 402.711 130.516C403.773 132.047 404.305 133.938 404.305 136.188C404.305 138.141 404 139.773 403.391 141.086C402.781 142.398 401.93 143.484 400.836 144.344C399.758 145.188 398.5 145.883 397.062 146.43L394.367 147.953H383.094L383.047 141.602H391.391C392.438 141.602 393.305 141.414 393.992 141.039C394.68 140.664 395.195 140.133 395.539 139.445C395.898 138.742 396.078 137.906 396.078 136.938C396.078 135.953 395.898 135.109 395.539 134.406C395.18 133.703 394.648 133.164 393.945 132.789C393.258 132.414 392.406 132.227 391.391 132.227H386.188V160H377.961V125.875ZM396.641 160L389.094 144.906L397.812 144.859L405.453 159.648V160H396.641ZM418.016 125.875V160H409.812V125.875H418.016ZM443.211 148.445H451.414C451.305 150.82 450.664 152.914 449.492 154.727C448.32 156.539 446.695 157.953 444.617 158.969C442.555 159.969 440.117 160.469 437.305 160.469C435.023 160.469 432.984 160.086 431.188 159.32C429.406 158.555 427.891 157.453 426.641 156.016C425.406 154.578 424.461 152.836 423.805 150.789C423.164 148.742 422.844 146.438 422.844 143.875V142.023C422.844 139.461 423.18 137.156 423.852 135.109C424.539 133.047 425.508 131.297 426.758 129.859C428.023 128.406 429.539 127.297 431.305 126.531C433.07 125.766 435.031 125.383 437.188 125.383C440.156 125.383 442.664 125.914 444.711 126.977C446.758 128.039 448.344 129.5 449.469 131.359C450.594 133.203 451.258 135.305 451.461 137.664H443.258C443.227 136.383 443.008 135.312 442.602 134.453C442.195 133.578 441.555 132.922 440.68 132.484C439.805 132.047 438.641 131.828 437.188 131.828C436.172 131.828 435.289 132.016 434.539 132.391C433.789 132.766 433.164 133.359 432.664 134.172C432.164 134.984 431.789 136.039 431.539 137.336C431.305 138.617 431.188 140.164 431.188 141.977V143.875C431.188 145.688 431.297 147.234 431.516 148.516C431.734 149.797 432.086 150.844 432.57 151.656C433.055 152.469 433.68 153.07 434.445 153.461C435.227 153.836 436.18 154.023 437.305 154.023C438.555 154.023 439.609 153.828 440.469 153.438C441.328 153.031 441.992 152.422 442.461 151.609C442.93 150.781 443.18 149.727 443.211 148.445ZM484.18 142.258V143.641C484.18 146.25 483.812 148.594 483.078 150.672C482.359 152.734 481.336 154.5 480.008 155.969C478.68 157.422 477.109 158.539 475.297 159.32C473.484 160.086 471.484 160.469 469.297 160.469C467.094 160.469 465.078 160.086 463.25 159.32C461.438 158.539 459.859 157.422 458.516 155.969C457.188 154.5 456.156 152.734 455.422 150.672C454.703 148.594 454.344 146.25 454.344 143.641V142.258C454.344 139.648 454.703 137.305 455.422 135.227C456.156 133.148 457.18 131.383 458.492 129.93C459.82 128.461 461.391 127.344 463.203 126.578C465.031 125.797 467.047 125.406 469.25 125.406C471.438 125.406 473.438 125.797 475.25 126.578C477.078 127.344 478.656 128.461 479.984 129.93C481.312 131.383 482.344 133.148 483.078 135.227C483.812 137.305 484.18 139.648 484.18 142.258ZM475.836 143.641V142.211C475.836 140.523 475.688 139.039 475.391 137.758C475.109 136.461 474.688 135.375 474.125 134.5C473.562 133.625 472.867 132.969 472.039 132.531C471.227 132.078 470.297 131.852 469.25 131.852C468.156 131.852 467.203 132.078 466.391 132.531C465.578 132.969 464.898 133.625 464.352 134.5C463.805 135.375 463.391 136.461 463.109 137.758C462.844 139.039 462.711 140.523 462.711 142.211V143.641C462.711 145.312 462.844 146.797 463.109 148.094C463.391 149.375 463.805 150.461 464.352 151.352C464.914 152.242 465.602 152.914 466.414 153.367C467.242 153.82 468.203 154.047 469.297 154.047C470.344 154.047 471.273 153.82 472.086 153.367C472.898 152.914 473.578 152.242 474.125 151.352C474.688 150.461 475.109 149.375 475.391 148.094C475.688 146.797 475.836 145.312 475.836 143.641ZM510.992 153.672V160H493.742V153.672H510.992ZM496.672 125.875V160H488.445V125.875H496.672ZM529.391 133.047L521.07 160H512.234L524.773 125.875H530.375L529.391 133.047ZM536.281 160L527.938 133.047L526.859 125.875H532.531L545.141 160H536.281ZM535.953 147.273V153.625H518.445V147.273H535.953Z" fill="#4F4F4F"/>
<defs>
<linearGradient id="paint0_linear_328_210" x1="0" y1="0" x2="618.819" y2="167.503" gradientUnits="userSpaceOnUse">
<stop stop-color="#48B760"/>
<stop offset="1" stop-color="#6BB748"/>
</linearGradient>
</defs>
</svg>
