<svg width="662" height="288" viewBox="0 0 662 288" fill="none" xmlns="http://www.w3.org/2000/svg">
<path d="M230.953 145.422H222.469V139.07H230.953C232.109 139.07 233.047 138.875 233.766 138.484C234.484 138.094 235.008 137.555 235.336 136.867C235.68 136.164 235.852 135.375 235.852 134.5C235.852 133.562 235.68 132.695 235.336 131.898C235.008 131.102 234.484 130.461 233.766 129.977C233.047 129.477 232.109 129.227 230.953 129.227H225.562V157H217.336V122.875H230.953C233.688 122.875 236.039 123.375 238.008 124.375C239.992 125.375 241.516 126.75 242.578 128.5C243.641 130.234 244.172 132.219 244.172 134.453C244.172 136.656 243.641 138.578 242.578 140.219C241.516 141.859 239.992 143.141 238.008 144.062C236.039 144.969 233.688 145.422 230.953 145.422ZM272.086 150.672V157H253.898V150.672H272.086ZM256.828 122.875V157H248.602V122.875H256.828ZM269.742 136.422V142.539H253.898V136.422H269.742ZM272.156 122.875V129.227H253.898V122.875H272.156ZM293.039 147.93C293.039 147.398 292.961 146.922 292.805 146.5C292.648 146.062 292.359 145.656 291.938 145.281C291.516 144.906 290.906 144.531 290.109 144.156C289.328 143.766 288.297 143.359 287.016 142.938C285.516 142.438 284.07 141.875 282.68 141.25C281.289 140.609 280.047 139.867 278.953 139.023C277.859 138.164 276.992 137.164 276.352 136.023C275.711 134.867 275.391 133.523 275.391 131.992C275.391 130.523 275.719 129.203 276.375 128.031C277.031 126.844 277.945 125.836 279.117 125.008C280.305 124.164 281.695 123.523 283.289 123.086C284.883 122.633 286.625 122.406 288.516 122.406C291.016 122.406 293.219 122.844 295.125 123.719C297.047 124.578 298.547 125.805 299.625 127.398C300.719 128.977 301.266 130.844 301.266 133H293.086C293.086 132.141 292.906 131.383 292.547 130.727C292.203 130.07 291.68 129.555 290.977 129.18C290.273 128.805 289.391 128.617 288.328 128.617C287.297 128.617 286.43 128.773 285.727 129.086C285.023 129.398 284.492 129.82 284.133 130.352C283.773 130.867 283.594 131.438 283.594 132.062C283.594 132.578 283.734 133.047 284.016 133.469C284.312 133.875 284.727 134.258 285.258 134.617C285.805 134.977 286.461 135.32 287.227 135.648C288.008 135.977 288.883 136.297 289.852 136.609C291.664 137.188 293.273 137.836 294.68 138.555C296.102 139.258 297.297 140.062 298.266 140.969C299.25 141.859 299.992 142.875 300.492 144.016C301.008 145.156 301.266 146.445 301.266 147.883C301.266 149.414 300.969 150.773 300.375 151.961C299.781 153.148 298.93 154.156 297.82 154.984C296.711 155.797 295.383 156.414 293.836 156.836C292.289 157.258 290.562 157.469 288.656 157.469C286.906 157.469 285.18 157.25 283.477 156.812C281.789 156.359 280.258 155.672 278.883 154.75C277.508 153.812 276.406 152.617 275.578 151.164C274.766 149.695 274.359 147.953 274.359 145.938H282.609C282.609 146.938 282.742 147.781 283.008 148.469C283.273 149.156 283.664 149.711 284.18 150.133C284.695 150.539 285.328 150.836 286.078 151.023C286.828 151.195 287.688 151.281 288.656 151.281C289.703 151.281 290.547 151.133 291.188 150.836C291.828 150.523 292.297 150.117 292.594 149.617C292.891 149.102 293.039 148.539 293.039 147.93ZM324.539 151.375L334.055 158.922L328.945 163.234L319.594 155.688L324.539 151.375ZM334.453 139.258V140.641C334.453 143.25 334.086 145.594 333.352 147.672C332.633 149.734 331.602 151.5 330.258 152.969C328.93 154.422 327.359 155.539 325.547 156.32C323.734 157.086 321.734 157.469 319.547 157.469C317.344 157.469 315.328 157.086 313.5 156.32C311.688 155.539 310.109 154.422 308.766 152.969C307.438 151.5 306.406 149.734 305.672 147.672C304.953 145.594 304.594 143.25 304.594 140.641V139.258C304.594 136.648 304.953 134.305 305.672 132.227C306.406 130.148 307.43 128.383 308.742 126.93C310.07 125.461 311.641 124.344 313.453 123.578C315.281 122.797 317.297 122.406 319.5 122.406C321.688 122.406 323.688 122.797 325.5 123.578C327.328 124.344 328.906 125.461 330.234 126.93C331.578 128.383 332.617 130.148 333.352 132.227C334.086 134.305 334.453 136.648 334.453 139.258ZM326.086 140.641V139.211C326.086 137.523 325.938 136.039 325.641 134.758C325.359 133.461 324.938 132.375 324.375 131.5C323.812 130.625 323.117 129.969 322.289 129.531C321.477 129.078 320.547 128.852 319.5 128.852C318.406 128.852 317.453 129.078 316.641 129.531C315.828 129.969 315.148 130.625 314.602 131.5C314.055 132.375 313.641 133.461 313.359 134.758C313.094 136.039 312.961 137.523 312.961 139.211V140.641C312.961 142.312 313.094 143.797 313.359 145.094C313.641 146.375 314.055 147.461 314.602 148.352C315.164 149.242 315.852 149.914 316.664 150.367C317.492 150.82 318.453 151.047 319.547 151.047C320.594 151.047 321.523 150.82 322.336 150.367C323.148 149.914 323.828 149.242 324.375 148.352C324.938 147.461 325.359 146.375 325.641 145.094C325.938 143.797 326.086 142.312 326.086 140.641ZM357.164 122.875H365.391V145.164C365.391 147.82 364.836 150.07 363.727 151.914C362.617 153.742 361.062 155.125 359.062 156.062C357.062 157 354.711 157.469 352.008 157.469C349.336 157.469 346.984 157 344.953 156.062C342.938 155.125 341.359 153.742 340.219 151.914C339.094 150.07 338.531 147.82 338.531 145.164V122.875H346.781V145.164C346.781 146.57 346.984 147.719 347.391 148.609C347.797 149.484 348.391 150.125 349.172 150.531C349.953 150.938 350.898 151.141 352.008 151.141C353.133 151.141 354.078 150.938 354.844 150.531C355.609 150.125 356.188 149.484 356.578 148.609C356.969 147.719 357.164 146.57 357.164 145.164V122.875ZM379.312 122.875V157H371.109V122.875H379.312ZM402.68 147.93C402.68 147.398 402.602 146.922 402.445 146.5C402.289 146.062 402 145.656 401.578 145.281C401.156 144.906 400.547 144.531 399.75 144.156C398.969 143.766 397.938 143.359 396.656 142.938C395.156 142.438 393.711 141.875 392.32 141.25C390.93 140.609 389.688 139.867 388.594 139.023C387.5 138.164 386.633 137.164 385.992 136.023C385.352 134.867 385.031 133.523 385.031 131.992C385.031 130.523 385.359 129.203 386.016 128.031C386.672 126.844 387.586 125.836 388.758 125.008C389.945 124.164 391.336 123.523 392.93 123.086C394.523 122.633 396.266 122.406 398.156 122.406C400.656 122.406 402.859 122.844 404.766 123.719C406.688 124.578 408.188 125.805 409.266 127.398C410.359 128.977 410.906 130.844 410.906 133H402.727C402.727 132.141 402.547 131.383 402.188 130.727C401.844 130.07 401.32 129.555 400.617 129.18C399.914 128.805 399.031 128.617 397.969 128.617C396.938 128.617 396.07 128.773 395.367 129.086C394.664 129.398 394.133 129.82 393.773 130.352C393.414 130.867 393.234 131.438 393.234 132.062C393.234 132.578 393.375 133.047 393.656 133.469C393.953 133.875 394.367 134.258 394.898 134.617C395.445 134.977 396.102 135.32 396.867 135.648C397.648 135.977 398.523 136.297 399.492 136.609C401.305 137.188 402.914 137.836 404.32 138.555C405.742 139.258 406.938 140.062 407.906 140.969C408.891 141.859 409.633 142.875 410.133 144.016C410.648 145.156 410.906 146.445 410.906 147.883C410.906 149.414 410.609 150.773 410.016 151.961C409.422 153.148 408.57 154.156 407.461 154.984C406.352 155.797 405.023 156.414 403.477 156.836C401.93 157.258 400.203 157.469 398.297 157.469C396.547 157.469 394.82 157.25 393.117 156.812C391.43 156.359 389.898 155.672 388.523 154.75C387.148 153.812 386.047 152.617 385.219 151.164C384.406 149.695 384 147.953 384 145.938H392.25C392.25 146.938 392.383 147.781 392.648 148.469C392.914 149.156 393.305 149.711 393.82 150.133C394.336 150.539 394.969 150.836 395.719 151.023C396.469 151.195 397.328 151.281 398.297 151.281C399.344 151.281 400.188 151.133 400.828 150.836C401.469 150.523 401.938 150.117 402.234 149.617C402.531 149.102 402.68 148.539 402.68 147.93ZM429.609 130.047L421.289 157H412.453L424.992 122.875H430.594L429.609 130.047ZM436.5 157L428.156 130.047L427.078 122.875H432.75L445.359 157H436.5ZM436.172 144.273V150.625H418.664V144.273H436.172Z" fill="#828282" fill-opacity="0.6"/>
<path d="M145.441 68.1001V71.9893C145.441 79.3281 144.408 85.9199 142.343 91.7646C140.321 97.5654 137.443 102.531 133.708 106.662C129.972 110.749 125.556 113.891 120.458 116.088C115.36 118.242 109.735 119.318 103.583 119.318C97.3867 119.318 91.7178 118.242 86.5762 116.088C81.4785 113.891 77.04 110.749 73.2607 106.662C69.5254 102.531 66.625 97.5654 64.5596 91.7646C62.5381 85.9199 61.5273 79.3281 61.5273 71.9893V68.1001C61.5273 60.7612 62.5381 54.1694 64.5596 48.3247C66.625 42.48 69.5034 37.5142 73.1948 33.4272C76.9302 29.2964 81.3467 26.1543 86.4443 24.001C91.5859 21.8037 97.2549 20.7051 103.451 20.7051C109.604 20.7051 115.229 21.8037 120.326 24.001C125.468 26.1543 129.906 29.2964 133.642 33.4272C137.377 37.5142 140.277 42.48 142.343 48.3247C144.408 54.1694 145.441 60.7612 145.441 68.1001ZM121.974 71.9893V67.9683C121.974 63.2222 121.557 59.0474 120.722 55.4438C119.931 51.7964 118.744 48.7422 117.162 46.2812C115.58 43.8203 113.625 41.9746 111.295 40.7441C109.01 39.4697 106.396 38.8325 103.451 38.8325C100.375 38.8325 97.6943 39.4697 95.4092 40.7441C93.124 41.9746 91.2124 43.8203 89.6743 46.2812C88.1362 48.7422 86.9717 51.7964 86.1807 55.4438C85.4336 59.0474 85.0601 63.2222 85.0601 67.9683V71.9893C85.0601 76.6914 85.4336 80.8662 86.1807 84.5137C86.9717 88.1172 88.1362 91.1714 89.6743 93.6763C91.2563 96.1812 93.1899 98.0708 95.4751 99.3452C97.8042 100.62 100.507 101.257 103.583 101.257C106.527 101.257 109.142 100.62 111.427 99.3452C113.712 98.0708 115.624 96.1812 117.162 93.6763C118.744 91.1714 119.931 88.1172 120.722 84.5137C121.557 80.8662 121.974 76.6914 121.974 71.9893ZM198.241 22.0234V118H175.104V22.0234H198.241ZM227.113 22.0234V39.8872H146.891V22.0234H227.113ZM261.522 22.0234V118H238.451V22.0234H261.522ZM289.274 22.0234H308.126L329.55 88.7983L350.973 22.0234H369.826L337.196 118H321.903L289.274 22.0234ZM277.804 22.0234H297.316L300.941 95.5879V118H277.804V22.0234ZM361.784 22.0234H381.361V118H358.158V95.5879L361.784 22.0234ZM420.78 22.0234V118H397.709V22.0234H420.78ZM508.913 100.202V118H439.435V100.202H508.913ZM508.451 33.8887L450.905 118H434.162V105.805L492.367 22.0234H508.451V33.8887ZM501.002 22.0234V39.8872H433.832V22.0234H501.002ZM561.054 42.1943L537.653 118H512.802L548.068 22.0234H563.822L561.054 42.1943ZM580.434 118L556.967 42.1943L553.935 22.0234H569.887L605.351 118H580.434ZM579.511 82.2065V100.07H530.27V82.2065H579.511Z" fill="url(#paint0_linear_328_210)"/>
<path d="M49.0688 186.194L25.668 262H0.816895L36.083 166.023H51.8374L49.0688 186.194ZM68.4487 262L44.9819 186.194L41.9497 166.023H57.9019L93.3657 262H68.4487ZM67.5259 226.207V244.07H18.2852V226.207H67.5259ZM177.477 210.716V250.135C175.851 251.937 173.346 253.87 169.962 255.936C166.623 257.957 162.404 259.693 157.306 261.143C152.208 262.593 146.21 263.318 139.311 263.318C132.938 263.318 127.16 262.308 121.974 260.286C116.789 258.221 112.328 255.21 108.593 251.255C104.901 247.256 102.045 242.378 100.023 236.622C98.0459 230.821 97.0571 224.185 97.0571 216.714V211.375C97.0571 203.904 98.0679 197.269 100.089 191.468C102.111 185.667 104.945 180.789 108.593 176.834C112.284 172.835 116.613 169.803 121.579 167.737C126.588 165.672 132.082 164.639 138.058 164.639C146.891 164.639 154.076 166.045 159.613 168.858C165.15 171.626 169.347 175.472 172.204 180.394C175.06 185.271 176.796 190.918 177.411 197.334H155.197C154.757 194.17 153.922 191.49 152.692 189.292C151.505 187.051 149.792 185.359 147.55 184.217C145.309 183.03 142.409 182.437 138.849 182.437C136.081 182.437 133.554 183.03 131.269 184.217C129.027 185.403 127.116 187.205 125.534 189.622C123.952 191.995 122.721 194.983 121.842 198.587C121.007 202.19 120.59 206.409 120.59 211.243V216.714C120.59 221.504 120.985 225.701 121.776 229.305C122.611 232.908 123.842 235.918 125.468 238.335C127.138 240.708 129.247 242.51 131.796 243.741C134.389 244.927 137.443 245.521 140.958 245.521C143.419 245.521 145.529 245.323 147.287 244.927C149.044 244.488 150.495 243.96 151.637 243.345C152.824 242.686 153.725 242.071 154.34 241.5V226.602H138.256V210.716H177.477ZM190.99 166.023H228.761C236.144 166.023 242.56 167.122 248.009 169.319C253.458 171.517 257.655 174.769 260.6 179.075C263.588 183.382 265.082 188.699 265.082 195.027C265.082 200.521 264.225 205.113 262.511 208.804C260.797 212.496 258.402 215.55 255.326 217.967C252.294 220.34 248.756 222.295 244.713 223.833L237.133 228.118H205.426L205.294 210.254H228.761C231.706 210.254 234.145 209.727 236.078 208.672C238.012 207.618 239.462 206.124 240.429 204.19C241.439 202.212 241.945 199.861 241.945 197.137C241.945 194.368 241.439 191.995 240.429 190.018C239.418 188.04 237.924 186.524 235.946 185.469C234.013 184.415 231.618 183.887 228.761 183.887H214.127V262H190.99V166.023ZM243.527 262L222.301 219.549L246.823 219.417L268.312 261.011V262H243.527ZM303.644 166.023V262H280.573V166.023H303.644ZM374.506 229.502H397.577C397.27 236.182 395.468 242.071 392.172 247.168C388.876 252.266 384.306 256.243 378.461 259.1C372.66 261.912 365.805 263.318 357.895 263.318C351.479 263.318 345.744 262.242 340.69 260.088C335.68 257.935 331.417 254.837 327.902 250.794C324.43 246.751 321.771 241.851 319.926 236.094C318.124 230.337 317.223 223.855 317.223 216.648V211.441C317.223 204.234 318.168 197.752 320.058 191.995C321.991 186.194 324.716 181.272 328.231 177.229C331.791 173.143 336.054 170.022 341.02 167.869C345.985 165.716 351.5 164.639 357.565 164.639C365.915 164.639 372.968 166.133 378.725 169.122C384.481 172.11 388.942 176.219 392.106 181.448C395.27 186.634 397.138 192.544 397.709 199.18H374.638C374.55 195.577 373.935 192.566 372.792 190.149C371.649 187.688 369.848 185.843 367.387 184.612C364.926 183.382 361.652 182.767 357.565 182.767C354.708 182.767 352.226 183.294 350.116 184.349C348.007 185.403 346.249 187.073 344.843 189.358C343.437 191.644 342.382 194.61 341.679 198.257C341.02 201.861 340.69 206.211 340.69 211.309V216.648C340.69 221.746 340.998 226.097 341.613 229.7C342.228 233.304 343.217 236.248 344.579 238.533C345.941 240.818 347.699 242.51 349.853 243.609C352.05 244.664 354.73 245.191 357.895 245.191C361.41 245.191 364.376 244.642 366.793 243.543C369.21 242.4 371.078 240.687 372.396 238.401C373.715 236.072 374.418 233.106 374.506 229.502ZM489.73 212.1V215.989C489.73 223.328 488.698 229.92 486.632 235.765C484.611 241.565 481.732 246.531 477.997 250.662C474.262 254.749 469.845 257.891 464.748 260.088C459.65 262.242 454.025 263.318 447.873 263.318C441.676 263.318 436.007 262.242 430.866 260.088C425.768 257.891 421.33 254.749 417.55 250.662C413.815 246.531 410.915 241.565 408.849 235.765C406.828 229.92 405.817 223.328 405.817 215.989V212.1C405.817 204.761 406.828 198.169 408.849 192.325C410.915 186.48 413.793 181.514 417.484 177.427C421.22 173.296 425.636 170.154 430.734 168.001C435.875 165.804 441.544 164.705 447.741 164.705C453.893 164.705 459.518 165.804 464.616 168.001C469.757 170.154 474.196 173.296 477.931 177.427C481.667 181.514 484.567 186.48 486.632 192.325C488.698 198.169 489.73 204.761 489.73 212.1ZM466.264 215.989V211.968C466.264 207.222 465.846 203.047 465.011 199.444C464.22 195.796 463.034 192.742 461.452 190.281C459.87 187.82 457.914 185.975 455.585 184.744C453.3 183.47 450.685 182.833 447.741 182.833C444.665 182.833 441.984 183.47 439.699 184.744C437.414 185.975 435.502 187.82 433.964 190.281C432.426 192.742 431.261 195.796 430.47 199.444C429.723 203.047 429.35 207.222 429.35 211.968V215.989C429.35 220.691 429.723 224.866 430.47 228.514C431.261 232.117 432.426 235.171 433.964 237.676C435.546 240.181 437.479 242.071 439.765 243.345C442.094 244.62 444.796 245.257 447.873 245.257C450.817 245.257 453.432 244.62 455.717 243.345C458.002 242.071 459.914 240.181 461.452 237.676C463.034 235.171 464.22 232.117 465.011 228.514C465.846 224.866 466.264 220.691 466.264 215.989ZM565.141 244.202V262H516.625V244.202H565.141ZM524.865 166.023V262H501.728V166.023H524.865ZM616.886 186.194L593.485 262H568.634L603.9 166.023H619.655L616.886 186.194ZM636.266 262L612.799 186.194L609.767 166.023H625.719L661.183 262H636.266ZM635.343 226.207V244.07H586.103V226.207H635.343Z" fill="#4F4F4F"/>
<defs>
<linearGradient id="paint0_linear_328_210" x1="1" y1="0" x2="690.848" y2="131.937" gradientUnits="userSpaceOnUse">
<stop stop-color="#48B760"/>
<stop offset="1" stop-color="#6BB748"/>
</linearGradient>
</defs>
</svg>
